<svg id="nilgiris-1905-seeklogo.com" xmlns="http://www.w3.org/2000/svg" width="126.139" height="41.518" viewBox="0 0 126.139 41.518">
  <g id="Group_15855" data-name="Group 15855" transform="translate(0)">
    <path id="Path_2374" data-name="Path 2374" d="M624.442,547.268a2.026,2.026,0,0,0-1.534,1.249,7.056,7.056,0,0,1-6.156,3.977c.357-.624,2.879-1.133,1.449-3.4-.546-.879-.525-1.179-.483-1.388a.988.988,0,0,1-.378-1.225.769.769,0,0,1-.315-.971.984.984,0,0,1-.525-.648,2.368,2.368,0,0,1,2.248.83c1.281,1.179,1.534,1.9,2.437,1.9s1.492-1.04,2.353-1.04a1.02,1.02,0,0,1,.9.712" transform="translate(-498.303 -541.645)"/>
    <g id="Group_15852" data-name="Group 15852">
      <path id="Path_2375" data-name="Path 2375" d="M507.321,228.263a2.561,2.561,0,0,0,1.66-.119,3.2,3.2,0,0,0,.483-.231,4.475,4.475,0,0,0,1.764-1.8,3.3,3.3,0,0,0,.378-2.2,1.875,1.875,0,0,0-1.366-1.3,2.764,2.764,0,0,0-1.724.208,2.865,2.865,0,0,0-.378.185,5.024,5.024,0,0,0-1.832,1.779,2.8,2.8,0,0,0-.42,2.128,2.107,2.107,0,0,0,1.436,1.346Z" transform="translate(-403.842 -215.828)"/>
      <path id="Path_2376" data-name="Path 2376" d="M189.928,220.148c-5.085-3.226-2.963-4.634-4.286-5.771a3.573,3.573,0,0,0-2.059-.682c-.273.023-.883.2-.925.682a4.849,4.849,0,0,1-.336,1.318,13.971,13.971,0,0,1-2.5,3.8,79.636,79.636,0,0,1-11.009,8.224c-1.009.593-1.3.181-1.113-.363a2.779,2.779,0,0,1,.441-.7c1.239-1.636,5.065-5.406,5.173-7.338.042-1.022-.9-1.886-3.593-1.636a1.02,1.02,0,0,0-.735.432,38.73,38.73,0,0,1-9.349,9.36c-1.408.909-2.753,1.159-2.311.522.441-.593.754-1.045,1.135-1.613,1.009-1.454,1.954-2.908,2.626-3.885a26.14,26.14,0,0,0,1.617-2.681,1.238,1.238,0,0,0-.108-1.34,2.318,2.318,0,0,0-2.122-.75c-.525.045-.63.25-.841.159a6.012,6.012,0,0,0-.673-.25,7.138,7.138,0,0,0-2.587-.363,13.318,13.318,0,0,0-3.53.658,13.11,13.11,0,0,0-1.744.75,12.1,12.1,0,0,0-2.29,1.661,16.479,16.479,0,0,0-4.349,5.931,7.839,7.839,0,0,1-3.4,1.613c-.883.25-1.7.068-1.429-.949,1.219-4.27,12.312-14.267,12.312-18.561.042-1.068-.925-1.954-3.74-1.7a.981.981,0,0,0-.754.454c-1.639,2.408-8.845,16.334-17.375,20.561-1.029.593-1.3.182-1.113-.363a2.431,2.431,0,0,1,.441-.7c1.261-1.681,4.9-5.316,5-7.27.042-1.068-.945-1.931-3.74-1.681a.9.9,0,0,0-.754.454,38.062,38.062,0,0,1-9.79,9.252c-.315.2-.609.387-.925.593a.958.958,0,0,0,.925,1.636h.022a29.822,29.822,0,0,0,2.773-1.454c.315,4.225,3.125,3.885,4.958,3.385a19.843,19.843,0,0,0,5.463-3.385,4.007,4.007,0,0,0,3.95,3.658c1.849-.068,4.875-1.75,6.807-2.84a3.059,3.059,0,0,0,.315,1.727,2.675,2.675,0,0,0,2.038,1.09,7.5,7.5,0,0,0,5.189-2.016,55.529,55.529,0,0,1-5.189,6.679,8.428,8.428,0,0,1-4.265,2.728,1.42,1.42,0,0,1-1.029-.3c-.647-.523-.525-2.113.273-3.226.5-.727-.168-.7-.777-.658a1.894,1.894,0,0,0-1.323.658,5.248,5.248,0,0,0-1.177,3.249A3.648,3.648,0,0,0,139,241.5c2.185,2.2,5.672.795,7.794-.7a18.517,18.517,0,0,0,1.848-1.636q.851-.852,1.639-1.772a68.287,68.287,0,0,0,4.2-5.43c.273-.387.63-.864.9-1.226,1.3.474,3.928-.387,6.466-2.477.294,4.044,3.047,3.817,4.769,3.18,3.53-1.3,11.324-6.816,16.01-11.768.4.432,1.093.949,1.492,1.34.567.523.294.864-.168,1.159-1.471,1.068-5.337,3.748-5.589,5.862a3.632,3.632,0,0,0,.657,2.5,3.015,3.015,0,0,0,2.074,1.249,3.98,3.98,0,0,0,.735,0c3.067,0,8.152-3.021,9.181-3.589.315,4.112,3.4,3.8,4.833,3.294,3.95-1.363,9.287-6.021,12.122-8.61a8.138,8.138,0,0,1,.754,3.249,2.565,2.565,0,0,1-.883,2.34,1.215,1.215,0,0,1-1.177.136,1.261,1.261,0,0,1-.462-.363c-.063-.068-.336-.474-.378-.523-.336-.273-1.009.2-1.239.454a1.389,1.389,0,0,0-.378,1.09c.21,2.43,3,2.477,3,2.477a5.3,5.3,0,0,0,5.589-6.771,13.322,13.322,0,0,1-.4-4.361,7.917,7.917,0,0,1,1.219-3.045c.273-.432.8-.909.693-1.5-.147-.841-1.155-.795-1.87-.546a9.6,9.6,0,0,0-4.749,4.52,38.158,38.158,0,0,1-3.614,3.18,46.8,46.8,0,0,1-5.988,4.475c-1.029.593-1.323.182-1.113-.363a2.431,2.431,0,0,1,.441-.7c1.261-1.681,4.9-5.316,5-7.292.042-1.045-.9-1.908-3.635-1.661a1.1,1.1,0,0,0-.735.432,41.282,41.282,0,0,1-5.231,5.952c-4.286,3.907-9.349,5.021-8.845,2.954.231-.886,2.941-2.43,4.749-3.658C190.682,222.034,191.234,220.949,189.928,220.148Zm-38.382,7.562a3.836,3.836,0,0,1-1.219.474,1.473,1.473,0,0,1-1.029-.119c-.588-.474-.147-1.522.108-2.016a12.765,12.765,0,0,1,2.038-2.862,9.7,9.7,0,0,1,2.6-2.045c.567-.3,1.765-.727,2.29-.022a1.815,1.815,0,0,1-.147,1.817,17.45,17.45,0,0,1-2.815,3.475c-.294.273-.63.523-.945.772C152.155,227.354,151.861,227.554,151.546,227.71Z" transform="translate(-98.155 -203.44)"/>
      <path id="Path_2377" data-name="Path 2377" d="M370.121,228.263a2.633,2.633,0,0,0,1.681-.119,3.2,3.2,0,0,0,.483-.231,4.346,4.346,0,0,0,1.764-1.8,3.294,3.294,0,0,0,.357-2.2,1.875,1.875,0,0,0-1.366-1.3,2.764,2.764,0,0,0-1.724.208,2.85,2.85,0,0,0-.378.185,5.024,5.024,0,0,0-1.832,1.779,2.8,2.8,0,0,0-.42,2.128,2.066,2.066,0,0,0,1.436,1.346Z" transform="translate(-295.468 -215.828)"/>
      <path id="Path_2378" data-name="Path 2378" d="M185.521,228.139a2.716,2.716,0,0,0,1.66-.093,4.893,4.893,0,0,0,.5-.231,4.475,4.475,0,0,0,1.765-1.8,3.425,3.425,0,0,0,.357-2.2,1.875,1.875,0,0,0-1.366-1.3,2.764,2.764,0,0,0-1.724.208,2.839,2.839,0,0,0-.378.185,4.847,4.847,0,0,0-1.832,1.779,2.833,2.833,0,0,0-.42,2.15,2.041,2.041,0,0,0,1.435,1.3Z" transform="translate(-149.653 -215.75)"/>
      <path id="Path_2379" data-name="Path 2379" d="M41.053,224.142c-1.6,1.779-5.065,6.262-7.732,5.716a1.041,1.041,0,0,1-.735-1.116c0-3.825,2.437-7.492,5.253-11.136a86.874,86.874,0,0,1,6.933-7.514,74.424,74.424,0,0,0,5.189-5.625c.862-1.047-1.6-3.962-2.542-3.848a9.207,9.207,0,0,0-2.647.82c-2.9,1.344-5.946,3.914-8.929,5.147.252-.364,2.206-2.505,2.353-2.664,2.143-2.436,4.707-5.989,4.223-7.309a6.855,6.855,0,0,0-2.731-3.62.558.558,0,0,0-.319-.093,5.959,5.959,0,0,0-1.765.455c-.42.136-.862.3-1.281.433h0a33.664,33.664,0,0,1-11.472,1.186.537.537,0,0,0-.462.319,3.632,3.632,0,0,0,1.849,4.486c2.795,1.047,5.9.136,9.013-.638a31.815,31.815,0,0,1-1.954,2.55c-2.164,2.459-4.454,4.781-6.807,7.514-1.576,1.8-5.8,7.264-6.072,10.156a1.665,1.665,0,0,0-.02.273,1.517,1.517,0,0,0,.02.3c.147.979,2.795,1.686,3.383,1.139.715-.638,1.408-1.548,2.038-2.164a64.944,64.944,0,0,1,7.436-6.9c.231-.136,4.707-3.461,6.429-3.734-1.617,1.068-7.668,8.836-8.719,10.771-1.555,2.824-3.614,5.9-3.614,10.225-.02,10.839,11.6,1.8,14.334-2.072a3.513,3.513,0,0,0,.647-1.253C42.629,225.008,42.063,223.05,41.053,224.142Z" transform="translate(-20.396 -192.9)"/>
    </g>
    <g id="Group_15853" data-name="Group 15853" transform="translate(99.396 33.751)">
      <path id="Path_2380" data-name="Path 2380" d="M415.962,322.638v-4.093H415.1v-.555a1.632,1.632,0,0,0,.647-.185.612.612,0,0,0,.336-.509h.588v5.338Z" transform="translate(-415.1 -317.231)"/>
      <path id="Path_2381" data-name="Path 2381" d="M430.94,319.1a4.387,4.387,0,0,1-.064.74,3.438,3.438,0,0,1-.21.763,3.521,3.521,0,0,1-.378.694,2.927,2.927,0,0,1-.567.6,2.576,2.576,0,0,1-.777.416,3.868,3.868,0,0,1-1.009.185v-.759a2.2,2.2,0,0,0,2.186-1.734,1.922,1.922,0,0,1-.546.324,1.955,1.955,0,0,1-.735.092,1.982,1.982,0,0,1-.631-.092,1.426,1.426,0,0,1-.525-.324,1.659,1.659,0,0,1-.357-.509,2.178,2.178,0,0,1-.126-.74,1.82,1.82,0,0,1,.147-.763,1.718,1.718,0,0,1,.4-.555,1.325,1.325,0,0,1,.609-.324,2.858,2.858,0,0,1,.754-.119,2.445,2.445,0,0,1,.715.119,1.381,1.381,0,0,1,.567.37,1.6,1.6,0,0,1,.378.67A2.434,2.434,0,0,1,430.94,319.1Zm-.754-.37a.941.941,0,0,0-.273-.694,1.049,1.049,0,0,0-.336-.208,1.121,1.121,0,0,0-.483-.07,1.255,1.255,0,0,0-.841.255.992.992,0,0,0-.294.712.782.782,0,0,0,.294.694,1.251,1.251,0,0,0,.8.231,1.371,1.371,0,0,0,.841-.231.758.758,0,0,0,.294-.694Z" transform="translate(-424.658 -317)"/>
      <path id="Path_2382" data-name="Path 2382" d="M452.924,319.728a4.99,4.99,0,0,1-.126,1.11,3.164,3.164,0,0,1-.357.879,1.712,1.712,0,0,1-.609.578,1.733,1.733,0,0,1-.819.208,1.815,1.815,0,0,1-.841-.208,1.767,1.767,0,0,1-.588-.555,2.523,2.523,0,0,1-.357-.855,4.948,4.948,0,0,1,0-2.219,2.157,2.157,0,0,1,.378-.879,1.7,1.7,0,0,1,1.429-.786,1.813,1.813,0,0,1,.841.208,1.77,1.77,0,0,1,.589.555,2.451,2.451,0,0,1,.357.879,6.122,6.122,0,0,1,.1,1.087Zm-.735.023a4.673,4.673,0,0,0-.063-.763,1.956,1.956,0,0,0-.21-.624.987.987,0,0,0-.378-.416.948.948,0,0,0-.546-.163.982.982,0,0,0-.9.555,1.957,1.957,0,0,0-.21.624,4.754,4.754,0,0,0-.063.786,4.964,4.964,0,0,0,.063.787,1.956,1.956,0,0,0,.21.623.989.989,0,0,0,.378.416.948.948,0,0,0,.546.162,1.134,1.134,0,0,0,.546-.139,1.1,1.1,0,0,0,.357-.416,1.956,1.956,0,0,0,.21-.624,5.738,5.738,0,0,0,.063-.809Z" transform="translate(-441.957 -317)"/>
      <path id="Path_2383" data-name="Path 2383" d="M474.534,320.813a2.236,2.236,0,0,1-.147.83,1.621,1.621,0,0,1-.4.6,1.488,1.488,0,0,1-.609.346,2.193,2.193,0,0,1-.777.119,2.927,2.927,0,0,1-.883-.139,3.42,3.42,0,0,1-.819-.393l.357-.67a2.829,2.829,0,0,0,1.365.416,1.185,1.185,0,0,0,.862-.278,1.159,1.159,0,0,0,.294-.786.883.883,0,0,0-.252-.712,1.03,1.03,0,0,0-.715-.231,1.423,1.423,0,0,0-.925.324l-.777-.324.168-2.61h2.983v.763H471.93l-.084,1.364a1.7,1.7,0,0,1,.462-.208,2.423,2.423,0,0,1,.588-.069,2.589,2.589,0,0,1,.735.119,1.336,1.336,0,0,1,.525.346,1.2,1.2,0,0,1,.315.531A3.437,3.437,0,0,1,474.534,320.813Z" transform="translate(-459.176 -317.228)"/>
    </g>
    <g id="Group_15854" data-name="Group 15854" transform="translate(116.645 13.595)">
      <path id="Path_2384" data-name="Path 2384" d="M487.4,244.835a2.017,2.017,0,0,1-1.849,2.15,1.992,1.992,0,0,1-1.954-2.035,2.017,2.017,0,0,1,1.849-2.15h.063a1.985,1.985,0,0,1,1.89,2.035Zm-3.341,0a1.671,1.671,0,0,0,.4,1.132,1.378,1.378,0,0,0,1.01.487h.042a1.352,1.352,0,0,0,1-.464,1.64,1.64,0,0,0,.406-1.109v-.046a1.522,1.522,0,0,0-1.365-1.642,1.492,1.492,0,0,0-1.492,1.5ZM485.2,245.9h-.42v-2.035a3.74,3.74,0,0,1,.715-.07.876.876,0,0,1,.63.161.538.538,0,0,1-.19.924v.024c.189.07.273.231.336.485a1.818,1.818,0,0,0,.126.485h-.441a2.136,2.136,0,0,1-.147-.485.33.33,0,0,0-.378-.3h-.216Zm.022-1.157h.216c.231,0,.42-.093.42-.3,0-.185-.126-.3-.4-.3a.72.72,0,0,0-.232.023Z" transform="translate(-483.598 -242.8)"/>
    </g>
  </g>
</svg>
