<svg id="intercom-vector-logo" xmlns="http://www.w3.org/2000/svg" width="154.681" height="41.519" viewBox="0 0 154.681 41.519">
  <path id="Path_2437" data-name="Path 2437" d="M35.559,2.028h-29A4.534,4.534,0,0,0,3.169,3.516,5.5,5.5,0,0,0,1.736,7.207V38.366a5.015,5.015,0,0,0,4.821,5.179H35.534a4.534,4.534,0,0,0,3.388-1.488,5.5,5.5,0,0,0,1.433-3.691V7.236a5.493,5.493,0,0,0-1.411-3.7,4.526,4.526,0,0,0-3.384-1.5ZM26.2,9.644a1.289,1.289,0,1,1,2.578,0v18.5a1.289,1.289,0,1,1-2.578,0Zm-6.419-.7a1.289,1.289,0,1,1,2.578,0V29.017a1.289,1.289,0,1,1-2.578,0Zm-6.445.7a1.289,1.289,0,1,1,2.578,0v18.5a1.289,1.289,0,1,1-2.578,0ZM6.892,12.414a1.35,1.35,0,0,1,1.289-1.307A1.35,1.35,0,0,1,9.47,12.414V24.87a1.35,1.35,0,0,1-1.289,1.307A1.35,1.35,0,0,1,6.892,24.87ZM34.786,33.523C34.58,33.719,29.81,38,21.071,38S7.563,33.691,7.356,33.523a1.418,1.418,0,0,1-.442-.95,1.456,1.456,0,0,1,.312-1.01,1.2,1.2,0,0,1,1.8-.14c.078.056,4.331,3.835,12.039,3.835,7.812,0,12.014-3.779,12.039-3.808a1.224,1.224,0,0,1,1.8.14,1.419,1.419,0,0,1,.314,1,1.382,1.382,0,0,1-.441.936Zm.439-8.651a1.289,1.289,0,1,1-2.578,0V12.417a1.289,1.289,0,1,1,2.578,0Z" transform="translate(-1.736 -2.028)"/>
  <path id="Path_2438" data-name="Path 2438" d="M50.169,26.7a1.179,1.179,0,1,1-2.346,0V14.476a1.179,1.179,0,1,1,2.346,0Z" transform="translate(3.455 0.157)"/>
  <path id="Path_2439" data-name="Path 2439" d="M64.652,14.48V25.653c0,1.506-.722,2.359-1.908,2.359h-.106c-1.109,0-1.624-.712-2.114-1.734l-2.371-5.06-2.09-5.231.052,5.06.026,5.657a1.179,1.179,0,1,1-2.346,0V15.531a2.266,2.266,0,0,1,.512-1.69,1.848,1.848,0,0,1,1.5-.67h.108c1.186,0,1.676.712,2.139,1.734l2.322,5.032,1.983,4.893-.052-4.69-.026-5.657a1.329,1.329,0,0,1,.344-.919,1.092,1.092,0,0,1,.842-.36,1.107,1.107,0,0,1,.836.364A1.345,1.345,0,0,1,64.652,14.48Z" transform="translate(4.127 0.154)"/>
  <path id="Path_2440" data-name="Path 2440" d="M72.629,26.692a1.179,1.179,0,1,1-2.346,0V15.633h-2.91a1.218,1.218,0,0,1,0-2.416h8.173a1.218,1.218,0,0,1,0,2.416h-2.91Z" transform="translate(5.537 0.164)"/>
  <path id="Path_2441" data-name="Path 2441" d="M78.339,26.283V14.8a1.579,1.579,0,0,1,.4-1.246,1.276,1.276,0,0,1,1.145-.4H86.64a1.032,1.032,0,0,1,.774.36,1.254,1.254,0,0,1,.3.862,1.23,1.23,0,0,1-.307.851,1.011,1.011,0,0,1-.771.344H80.659v3.559h5.259a1.175,1.175,0,0,1,0,2.331H80.659v4.094h5.955a1.032,1.032,0,0,1,.774.36,1.254,1.254,0,0,1,.3.863,1.23,1.23,0,0,1-.307.851,1.011,1.011,0,0,1-.771.344H79.808a1.238,1.238,0,0,1-1.126-.427,1.535,1.535,0,0,1-.343-1.256Z" transform="translate(6.89 0.147)"/>
  <path id="Path_2442" data-name="Path 2442" d="M99.721,26.307a1.362,1.362,0,0,1,.075,1,1.212,1.212,0,0,1-.614.738,1.185,1.185,0,0,1-1.65-.511l-2.6-5.317H92.449l.026,4.521a1.179,1.179,0,1,1-2.346,0V14.822a1.579,1.579,0,0,1,.4-1.246,1.276,1.276,0,0,1,1.145-.4h4.408a4.1,4.1,0,0,1,4.332,4.435,3.9,3.9,0,0,1-3.067,4.122Zm-7.3-6.424h3.709a1.69,1.69,0,0,0,1.415-.587,2.079,2.079,0,0,0,.493-1.574,2.1,2.1,0,0,0-.52-1.558,1.712,1.712,0,0,0-1.414-.577H92.425Z" transform="translate(8.219 0.149)"/>
  <path id="Path_2443" data-name="Path 2443" d="M103.936,26.917c-1.417-1.393-2.036-3.559-2.036-6.287,0-2.758.619-4.89,2.01-6.254a5.086,5.086,0,0,1,3.713-1.393,4.83,4.83,0,0,1,3.48,1.166,5.517,5.517,0,0,1,1.623,2.9,1.327,1.327,0,0,1-.177,1,1.1,1.1,0,0,1-.8.508,1.282,1.282,0,0,1-1.417-1.024,3.682,3.682,0,0,0-.876-1.478,2.482,2.482,0,0,0-1.883-.676,2.641,2.641,0,0,0-2.114.881,6.619,6.619,0,0,0-1.134,4.378,6.524,6.524,0,0,0,1.134,4.378,2.718,2.718,0,0,0,2.089.881,2.76,2.76,0,0,0,2.76-1.907,1.211,1.211,0,0,1,1.418-.938,1.134,1.134,0,0,1,.737.576,1.346,1.346,0,0,1,.113.987,5.3,5.3,0,0,1-1.7,2.673,5.62,5.62,0,0,1-6.939-.37Z" transform="translate(9.546 0.109)"/>
  <path id="Path_2444" data-name="Path 2444" d="M114,20.632c0-4.633,1.724-7.647,5.8-7.647,4.022,0,5.776,2.928,5.776,7.647,0,4.776-1.754,7.647-5.776,7.647C115.7,28.279,114,25.408,114,20.632Zm9.179,0c0-3.525-1.161-5.231-3.4-5.231-2.191,0-3.351,1.706-3.351,5.231s1.135,5.231,3.351,5.231,3.4-1.711,3.4-5.231Z" transform="translate(10.909 0.112)"/>
  <path id="Path_2445" data-name="Path 2445" d="M142.21,26.688a1.176,1.176,0,1,1-2.346,0V21.141l.053-5.4-1.624,5.486-1.65,5.4a1.639,1.639,0,0,1-3.223,0l-1.7-5.368-1.551-5.4.052,5.317v5.543a1.176,1.176,0,1,1-2.346,0V15.657a2.276,2.276,0,0,1,.509-1.749,1.85,1.85,0,0,1,1.554-.667,2.33,2.33,0,0,1,2.319,2.047l1.724,5.657,1.057,3.837,1.057-3.837,1.724-5.657a2.311,2.311,0,0,1,2.319-2.047,1.833,1.833,0,0,1,1.545.671,2.256,2.256,0,0,1,.492,1.746Z" transform="translate(12.471 0.167)"/>
</svg>
