<svg id="Group_24799" data-name="Group 24799" xmlns="http://www.w3.org/2000/svg" width="129.554" height="36.425" viewBox="0 0 129.554 36.425">
  <path id="Path_2454" data-name="Path 2454" d="M58.3,19.578l-2.077-5.918a.259.259,0,0,0-.495,0l-2.077,5.918a.292.292,0,0,0-.014.132.288.288,0,0,0,.045.124.269.269,0,0,0,.1.088.251.251,0,0,0,.122.031h4.153a.251.251,0,0,0,.122-.031.268.268,0,0,0,.1-.088.288.288,0,0,0,.045-.124.292.292,0,0,0-.016-.132Zm.96,3.325H52.708a.253.253,0,0,0-.151.05.276.276,0,0,0-.1.132l-1.292,3.682a.276.276,0,0,1-.1.132.253.253,0,0,1-.151.05H48.075a.252.252,0,0,1-.124-.032.269.269,0,0,1-.1-.09.288.288,0,0,1-.043-.127.291.291,0,0,1,.018-.133l6.564-17.25a.275.275,0,0,1,.1-.127.253.253,0,0,1,.148-.048h2.726a.253.253,0,0,1,.148.048.275.275,0,0,1,.1.127l6.564,17.25a.292.292,0,0,1,.018.133.289.289,0,0,1-.043.127.268.268,0,0,1-.1.09.253.253,0,0,1-.124.032H61.062a.253.253,0,0,1-.151-.05.275.275,0,0,1-.1-.132l-1.292-3.682a.276.276,0,0,0-.1-.132.253.253,0,0,0-.151-.05ZM65.487,15.2h2.435a.25.25,0,0,1,.1.021.264.264,0,0,1,.085.06.28.28,0,0,1,.057.091.291.291,0,0,1,.02.106v11.2a.292.292,0,0,1-.02.106.279.279,0,0,1-.057.091.263.263,0,0,1-.085.06.25.25,0,0,1-.1.021H65.486a.249.249,0,0,1-.1-.021.262.262,0,0,1-.085-.06.28.28,0,0,1-.057-.091.294.294,0,0,1-.02-.106V15.449a.294.294,0,0,1,.02-.106.28.28,0,0,1,.057-.091.261.261,0,0,1,.085-.06.248.248,0,0,1,.1-.021Zm11.576,2.7a.291.291,0,0,1-.019.106.278.278,0,0,1-.058.091.261.261,0,0,1-.085.06.252.252,0,0,1-.1.021h-.074a3.447,3.447,0,0,0-2.649.915,4.426,4.426,0,0,0-.842,3.027v4.528a.293.293,0,0,1-.02.106.279.279,0,0,1-.058.091.26.26,0,0,1-.085.06.249.249,0,0,1-.1.021H70.558a.25.25,0,0,1-.1-.021.262.262,0,0,1-.085-.06.278.278,0,0,1-.057-.091.289.289,0,0,1-.02-.106V15.461a.289.289,0,0,1,.02-.106.278.278,0,0,1,.057-.091.261.261,0,0,1,.085-.06.248.248,0,0,1,.1-.021h2.387a.248.248,0,0,1,.1.021.262.262,0,0,1,.085.06.28.28,0,0,1,.057.091.292.292,0,0,1,.02.106v2.219h.048a4.2,4.2,0,0,1,1.372-2.114,3.624,3.624,0,0,1,2.31-.74h.119Zm6.657-.106a.247.247,0,0,0-.1.021.26.26,0,0,0-.085.06.279.279,0,0,0-.058.091.294.294,0,0,0-.02.106v4.666a1.554,1.554,0,0,0,.265,1.018,1.154,1.154,0,0,0,.914.305h.242a.252.252,0,0,1,.1.021.262.262,0,0,1,.085.06.277.277,0,0,1,.058.091.291.291,0,0,1,.019.106v2.357a.291.291,0,0,1-.019.106.278.278,0,0,1-.058.091.262.262,0,0,1-.085.06.25.25,0,0,1-.1.021H83.84a3.327,3.327,0,0,1-2.48-.877,3.573,3.573,0,0,1-.864-2.608v-5.4a.29.29,0,0,0-.02-.106.278.278,0,0,0-.057-.091.263.263,0,0,0-.085-.06.252.252,0,0,0-.1-.021H78.71a.25.25,0,0,1-.1-.021.263.263,0,0,1-.085-.06.281.281,0,0,1-.057-.091.294.294,0,0,1-.02-.106V15.461a.293.293,0,0,1,.02-.106.281.281,0,0,1,.057-.091.262.262,0,0,1,.085-.06.248.248,0,0,1,.1-.021h1.519a.252.252,0,0,0,.1-.021.261.261,0,0,0,.085-.06.278.278,0,0,0,.057-.091.29.29,0,0,0,.02-.106V10.743a.289.289,0,0,1,.02-.106.28.28,0,0,1,.057-.091.264.264,0,0,1,.085-.06.252.252,0,0,1,.1-.021h2.435a.252.252,0,0,1,.1.021.263.263,0,0,1,.085.06.28.28,0,0,1,.058.091.293.293,0,0,1,.02.106V14.9a.29.29,0,0,0,.019.106.277.277,0,0,0,.058.091.26.26,0,0,0,.085.06.252.252,0,0,0,.1.021H85.48a.248.248,0,0,1,.1.021.26.26,0,0,1,.085.06.279.279,0,0,1,.057.091.289.289,0,0,1,.02.106v2.064a.289.289,0,0,1-.02.106.279.279,0,0,1-.057.091.263.263,0,0,1-.085.06.25.25,0,0,1-.1.021Zm11.147,5.647a3.424,3.424,0,0,0,.831-2.391,3.4,3.4,0,0,0-1.477-2.955,2.776,2.776,0,0,0-3.065,0,3.525,3.525,0,0,0,.414,5.994,2.873,2.873,0,0,0,3.294-.648Zm-5.61,3.127a5.108,5.108,0,0,1-1.939-2.15,7.42,7.42,0,0,1-.71-3.37,7.423,7.423,0,0,1,.71-3.37,5.067,5.067,0,0,1,4.635-2.889,4.367,4.367,0,0,1,2.227.535,3.945,3.945,0,0,1,1.48,1.513h.048V15.456a.289.289,0,0,1,.02-.106.279.279,0,0,1,.057-.091.261.261,0,0,1,.085-.06.248.248,0,0,1,.1-.021h2.411a.248.248,0,0,1,.1.021.259.259,0,0,1,.085.06.279.279,0,0,1,.058.091.293.293,0,0,1,.02.106v11.2a.294.294,0,0,1-.02.106.279.279,0,0,1-.058.091.261.261,0,0,1-.085.06.25.25,0,0,1-.1.021h-2.41a.25.25,0,0,1-.1-.021.263.263,0,0,1-.085-.06.279.279,0,0,1-.057-.091.289.289,0,0,1-.02-.106V25.267h-.048a4.121,4.121,0,0,1-1.483,1.518,4.266,4.266,0,0,1-2.227.535,5.145,5.145,0,0,1-2.7-.74Zm19.414-3.109a3.422,3.422,0,0,0,.832-2.391,3.4,3.4,0,0,0-1.483-2.94,2.776,2.776,0,0,0-3.055,0,3.508,3.508,0,0,0,.408,5.979,2.873,2.873,0,0,0,3.294-.648Zm-3.658,3.333a3.963,3.963,0,0,1-1.482-1.5h-.048v1.388a.277.277,0,0,1-.019.106.284.284,0,0,1-.058.091.258.258,0,0,1-.186.081h-2.435a.257.257,0,0,1-.187-.081.267.267,0,0,1-.058-.091.3.3,0,0,1-.02-.106V9.409a.3.3,0,0,1,.02-.106.267.267,0,0,1,.058-.091.257.257,0,0,1,.187-.081h2.435a.258.258,0,0,1,.186.081.284.284,0,0,1,.058.091.277.277,0,0,1,.019.106v7.44h.048a3.962,3.962,0,0,1,1.482-1.5,4.378,4.378,0,0,1,2.227-.535,5.067,5.067,0,0,1,4.635,2.889,7.427,7.427,0,0,1,.711,3.37,7.45,7.45,0,0,1-.711,3.37,5.067,5.067,0,0,1-4.636,2.889,4.369,4.369,0,0,1-2.228-.535Zm11.671.159h-2.436a.258.258,0,0,1-.186-.081.3.3,0,0,1-.058-.091.3.3,0,0,1-.019-.106V9.409A.3.3,0,0,1,114,9.3a.266.266,0,0,1,.244-.173h2.435a.25.25,0,0,1,.1.021.256.256,0,0,1,.085.06.267.267,0,0,1,.058.091.3.3,0,0,1,.02.106V26.684a.3.3,0,0,1-.02.106.267.267,0,0,1-.058.091.256.256,0,0,1-.085.06.25.25,0,0,1-.1.021Zm5.743-9.012a2.511,2.511,0,0,0-.818,1.441.3.3,0,0,0,.055.239.248.248,0,0,0,.2.1H126.5a.248.248,0,0,0,.2-.093.3.3,0,0,0,.066-.224,2.349,2.349,0,0,0-.723-1.422,2.558,2.558,0,0,0-1.794-.622,2.763,2.763,0,0,0-1.818.585Zm5.936-1.462a6.892,6.892,0,0,1,1.433,4.64v.333a.3.3,0,0,1-.02.106.267.267,0,0,1-.058.091.257.257,0,0,1-.187.081H121.79a.247.247,0,0,0-.2.1.3.3,0,0,0-.06.231,2.868,2.868,0,0,0,.933,1.771,3.142,3.142,0,0,0,2.154.75,4.4,4.4,0,0,0,3.106-1.384.256.256,0,0,1,.1-.058.247.247,0,0,1,.215.026.267.267,0,0,1,.082.079l1.183,1.8a.287.287,0,0,1-.04.368,8.7,8.7,0,0,1-1.92,1.35,5.842,5.842,0,0,1-2.721.6,6.208,6.208,0,0,1-3.154-.776,5.343,5.343,0,0,1-2.1-2.188,6.851,6.851,0,0,1-.746-3.269,7.127,7.127,0,0,1,.722-3.276,5.362,5.362,0,0,1,2.023-2.213,5.728,5.728,0,0,1,3.033-.788,4.968,4.968,0,0,1,3.971,1.639ZM68.52,11.077a1.959,1.959,0,0,1-.528,1.342,1.726,1.726,0,0,1-2.542,0,1.972,1.972,0,0,1,0-2.685,1.726,1.726,0,0,1,2.542,0A1.96,1.96,0,0,1,68.52,11.077Z" transform="translate(-0.253 -0.016)"/>
  <path id="Path_2455" data-name="Path 2455" d="M18.815,1.213,3.445,7.933A1.115,1.115,0,0,0,3.459,9.95l15.435,6.467a5.446,5.446,0,0,0,4.225,0L38.55,9.951a1.113,1.113,0,0,0,.014-2.017L23.195,1.213a5.449,5.449,0,0,0-4.38,0Z" transform="translate(-0.421 -0.753)"/>
  <path id="Path_2456" data-name="Path 2456" d="M22.3,19.054V35.194a1.162,1.162,0,0,0,.466.907.949.949,0,0,0,.942.1L40.9,29.154a1.038,1.038,0,0,0,.473-.4,1.131,1.131,0,0,0,.178-.612V12a1.162,1.162,0,0,0-.466-.907.949.949,0,0,0-.942-.1L22.951,18.042a1.039,1.039,0,0,0-.473.4A1.131,1.131,0,0,0,22.3,19.054Z" transform="translate(-0.348 0.14)"/>
  <path id="Path_2457" data-name="Path 2457" d="M18.37,19.879l-5.61,2.868L1.986,28.206a1,1,0,0,1-1.01-.043,1.217,1.217,0,0,1-.545-.937V12.064a1.034,1.034,0,0,1,.329-.729,1.177,1.177,0,0,1,.26-.211,1.046,1.046,0,0,1,.937-.077l16.351,6.84a1.065,1.065,0,0,1,.657.964,1.088,1.088,0,0,1-.572,1.028" transform="translate(-0.43 0.145)"/>
  <path id="Path_2458" data-name="Path 2458" d="M18.369,19.879l-5.106,2.605L.732,11.335a1.176,1.176,0,0,1,.257-.207,1.046,1.046,0,0,1,.937-.077l16.351,6.84a1.065,1.065,0,0,1,.656.96,1.09,1.09,0,0,1-.564,1.028" transform="translate(-0.43 0.145)"/>
</svg>
