<svg id="Dropbox__service_-Logo.wine" data-name="Dropbox_(service)-Logo.wine" xmlns="http://www.w3.org/2000/svg" width="173.882" height="36.425" viewBox="0 0 173.882 36.425">
  <path id="Path_2415" data-name="Path 2415" d="M21.438,10.015l-10.09,6.851,10.09,6.851-10.09,6.855L1.258,23.659l10.089-6.851L1.258,10.015,11.347,3.164ZM11.294,32.737l10.089-6.849,10.089,6.851L21.383,39.589Zm10.144-9.078,10.089-6.851L21.438,10.015,31.473,3.164l10.089,6.851L31.473,16.865l10.089,6.851L31.473,30.571Z" transform="translate(-1.258 -3.164)"/>
  <path id="Path_2416" data-name="Path 2416" d="M45.248,9.216h8.157c5.206,0,9.5,3.189,9.5,10.475v1.537c0,7.345-4.025,10.647-9.338,10.647H45.245Zm4.561,4.1v14.4H53.3c2.952,0,4.938-2.05,4.938-6.6v-1.2c0-4.555-2.093-6.6-5.1-6.6Zm15.507.228h3.65l.59,4.267c.7-2.9,2.469-4.441,5.688-4.441h1.127v4.891H74.5c-3.7,0-4.615,1.366-4.615,5.238v8.429H65.373V13.54Zm11.968,9.565v-.514c0-6.149,3.7-9.508,8.748-9.508,5.152,0,8.748,3.359,8.748,9.508v.512c0,6.036-3.488,9.28-8.748,9.28-5.579-.054-8.745-3.243-8.745-9.278Zm12.88-.057v-.457c0-3.417-1.607-5.466-4.186-5.466-2.52,0-4.183,1.88-4.183,5.466v.456c0,3.3,1.607,5.18,4.186,5.18,2.576-.055,4.186-1.877,4.186-5.179Zm6.977-9.508H100.9l.429,3.473a5.826,5.826,0,0,1,5.688-3.929c4.4,0,7.3,3.359,7.3,9.565v.512c0,6.036-3.22,9.223-7.3,9.223a5.621,5.621,0,0,1-5.528-3.417v9.281h-4.4Zm12.612,9.508v-.4c0-3.642-1.77-5.466-4.131-5.466-2.523,0-4.187,2.05-4.187,5.466v.341c0,3.245,1.607,5.295,4.133,5.295,2.578-.056,4.187-1.821,4.187-5.238Zm11.217,5.466-.378,3.359h-3.864V7.394h4.4v9.394a5.652,5.652,0,0,1,5.635-3.7c4.133.057,7.192,3.074,7.192,9.166v.569c0,6.092-2.9,9.565-7.3,9.565a5.745,5.745,0,0,1-5.686-3.871Zm8.373-5.693v-.456c0-3.359-1.718-5.238-4.133-5.238-2.469,0-4.186,2.106-4.186,5.295v.4c0,3.415,1.664,5.411,4.133,5.411,2.631,0,4.188-1.767,4.188-5.411Zm6.547.285v-.514c0-6.149,3.7-9.508,8.747-9.508,5.151,0,8.747,3.359,8.747,9.508v.512c0,6.036-3.542,9.28-8.747,9.28-5.579-.054-8.745-3.243-8.745-9.278Zm12.933-.057v-.457c0-3.417-1.607-5.466-4.186-5.466-2.522,0-4.186,1.878-4.186,5.466v.456c0,3.3,1.607,5.18,4.186,5.18,2.578-.055,4.189-1.877,4.189-5.179Zm10.465-.683-6.066-8.825h5.206l3.488,5.523,3.542-5.523h5.151l-6.172,8.768,6.494,9.565h-5.1l-3.971-6.092-3.858,6.092h-5.313Z" transform="translate(2.948 -2.293)"/>
</svg>
