<svg xmlns="http://www.w3.org/2000/svg" xmlns:xlink="http://www.w3.org/1999/xlink" width="111.438" height="36.425" viewBox="0 0 111.438 36.425">
  <defs>
    <clipPath id="clip-path">
      <rect id="Rectangle_360" data-name="Rectangle 360" width="111.438" height="36.425"/>
    </clipPath>
  </defs>
  <g id="Shopify-Logo.wine" clip-path="url(#clip-path)">
    <path id="Path_2425" data-name="Path 2425" d="M24.255,7.787a.274.274,0,0,0-.269-.251c-.107,0-2.45-.194-2.45-.194s-1.626-1.758-1.828-1.932a.7.7,0,0,0-.662-.1c-.018,0-.357.116-.912.312-.549-1.721-1.5-3.289-3.2-3.289h-.161A2.052,2.052,0,0,0,13.2,1.372c-3.934,0-5.83,5.308-6.42,8.014-1.538.52-2.629.869-2.754.927-.859.289-.877.312-.983,1.178C2.957,12.152.722,30.826.722,30.826l17.4,3.515,9.442-2.2C27.58,32.1,24.272,7.958,24.255,7.787ZM17.174,5.894c-.429.135-.946.312-1.467.5V6.049a7.967,7.967,0,0,0-.357-2.566C16.243,3.6,16.8,4.659,17.174,5.894Zm-2.915-2.2a8.689,8.689,0,0,1,.393,2.858v.194c-.965.328-1.986.657-3.04,1.023C12.2,5.334,13.329,4.137,14.258,3.691Zm-1.144-1.2a.817.817,0,0,1,.5.194C12.345,3.324,11,4.928,10.45,8.172c-.841.289-1.645.541-2.414.811C8.679,6.512,10.289,2.5,13.114,2.5Z" transform="translate(-0.521 -0.021)"/>
    <path id="Path_2426" data-name="Path 2426" d="M25.748,7.558c-.107,0-2.45-.194-2.45-.194s-1.626-1.753-1.823-1.931a.336.336,0,0,0-.233-.116L19.937,34.4l9.442-2.2S26.069,8.023,26.053,7.848a.5.5,0,0,0-.305-.29Z" transform="translate(-2.281 -0.082)"/>
    <path id="Path_2427" data-name="Path 2427" d="M15.358,13.314l-1.144,3.727a5.055,5.055,0,0,0-2.269-.6c-1.842,0-1.931,1.255-1.931,1.561,0,1.7,4.112,2.356,4.112,6.354,0,3.148-1.842,5.176-4.327,5.176a5.731,5.731,0,0,1-4.506-2.009l.8-2.858a5.537,5.537,0,0,0,2.9,1.467,1.1,1.1,0,0,0,.864-.347,1.345,1.345,0,0,0,.366-.928c0-2.221-3.362-2.318-3.362-5.986a5.828,5.828,0,0,1,6.169-6.045,4.468,4.468,0,0,1,2.327.486Z" transform="translate(-0.939 -0.199)" fill="#fff"/>
    <path id="Path_2428" data-name="Path 2428" d="M41.722,20.25c-.946-.541-1.431-1.024-1.431-1.665,0-.811.68-1.332,1.734-1.332a5.874,5.874,0,0,1,2.324.541l.859-2.839S44.422,14.3,42.1,14.3c-3.237,0-5.489,2.009-5.489,4.828a4.46,4.46,0,0,0,2.45,3.688c1.144.675,1.538,1.178,1.538,1.912,0,.753-.572,1.371-1.627,1.371a6.887,6.887,0,0,1-3.04-.869l-.912,2.839a6.566,6.566,0,0,0,3.648.985c3.326,0,5.74-1.777,5.74-4.963C44.369,22.354,43.171,21.158,41.722,20.25ZM54.99,14.264a4.875,4.875,0,0,0-3.914,2.123l-.036-.02,1.431-8.033h-3.7L45.156,28.8h3.7l1.229-6.991c.483-2.646,1.752-4.287,2.931-4.287.841,0,1.162.618,1.162,1.487a8.532,8.532,0,0,1-.161,1.777L52.624,28.8h3.7l1.449-8.265a16.074,16.074,0,0,0,.269-2.627c-.012-2.3-1.1-3.649-3.052-3.649Zm11.427,0c-4.471,0-7.421,4.345-7.421,9.193a5.585,5.585,0,0,0,1.4,4.068,4.56,4.56,0,0,0,3.7,1.532c4.381,0,7.331-4.23,7.331-9.193.019-2.878-1.519-5.6-5.006-5.6ZM64.593,26c-1.27,0-1.788-1.158-1.788-2.627,0-2.3,1.091-6.025,3.111-6.025,1.3,0,1.752,1.236,1.752,2.414C67.669,22.219,66.542,26,64.593,26Zm16.326-11.74A4.968,4.968,0,0,0,77,16.656h-.036l.215-2.144h-3.29c-.161,1.449-.465,3.67-.751,5.308L70.588,34.478h3.7l1.04-5.932h.09a4.069,4.069,0,0,0,2.164.52c4.363,0,7.207-4.828,7.207-9.694C84.764,16.677,83.638,14.263,80.919,14.263Zm-3.54,11.781a2.228,2.228,0,0,1-1.538-.6l.608-3.727c.429-2.51,1.645-4.152,2.931-4.152,1.144,0,1.485,1.14,1.485,2.2C80.883,22.354,79.453,26.044,77.379,26.044ZM90.056,8.527a2.01,2.01,0,0,0-1.5.67,2.44,2.44,0,0,0-.624,1.647,1.988,1.988,0,0,0,.47,1.434,1.626,1.626,0,0,0,1.282.575h.036a1.958,1.958,0,0,0,1.541-.64,2.389,2.389,0,0,0,.623-1.678,2,2,0,0,0-.5-1.458,1.635,1.635,0,0,0-1.324-.551ZM84.871,28.785h3.7l2.5-14.213H87.357Zm15.647-14.23H97.943l.126-.657c.215-1.372.965-2.569,2.217-2.569a3.435,3.435,0,0,1,1.181.208l.715-3.148a4.485,4.485,0,0,0-2.021-.348,5.3,5.3,0,0,0-3.629,1.332,7.7,7.7,0,0,0-2.147,4.541l-.107.657H92.542L91.988,17.6h1.735L91.757,28.8h3.7l1.967-11.2h2.553Zm8.924.02s-2.325,6.315-3.345,9.771h-.035c-.072-1.12-.912-9.771-.912-9.771h-3.9l2.235,13.016a.971.971,0,0,1-.089.657,6.666,6.666,0,0,1-2.021,2.413,8.075,8.075,0,0,1-2.11,1.14l1.04,3.4a8.316,8.316,0,0,0,3.629-2.186,27.318,27.318,0,0,0,4.864-7.938l4.521-10.522h-3.877Z" transform="translate(-3.664 -0.126)"/>
  </g>
</svg>
